<!-- icon666.com - MILLIONS vector ICONS FREE --><svg viewBox="0 0 32 32" xmlns="http://www.w3.org/2000/svg" xmlns:xlink="http://www.w3.org/1999/xlink"><linearGradient id="linear-gradient" gradientUnits="userSpaceOnUse" x1="30.536" x2="-1.38" y1="-1.622" y2="30.293"><stop offset="0" stop-color="#fc00ff"></stop><stop offset="1" stop-color="#00dbde"></stop></linearGradient><g id="_69_-_add_to_cart" data-name="69 - add to cart"><path d="m13 17a1 1 0 0 1 1-1h8a1 1 0 0 1 0 2h-8a1 1 0 0 1 -1-1zm16.142-9.99a1 1 0 0 0 -1.132.848l-1.877 13.142h-16.233l-1.906-18.1a1 1 0 0 0 -.994-.9h-4a1 1 0 0 0 0 2h3.1l1.906 18.1a1 1 0 0 0 .994.9h18a1 1 0 0 0 .99-.858l2-14a1 1 0 0 0 -.848-1.132zm-14.142 19.99a3 3 0 1 1 -3-3 3 3 0 0 1 3 3zm-2 0a1 1 0 1 0 -1 1 1 1 0 0 0 1-1zm12 0a3 3 0 1 1 -3-3 3 3 0 0 1 3 3zm-2 0a1 1 0 1 0 -1 1 1 1 0 0 0 1-1zm-5.781-13.375a1 1 0 0 0 1.562 0l4-5a1 1 0 0 0 -1.562-1.25l-2.219 2.774v-7.149a1 1 0 0 0 -2 0v7.149l-2.219-2.774a1 1 0 1 0 -1.562 1.25z" fill="url(#linear-gradient)"></path></g></svg>